<svg width="32" height="32" viewBox="0 0 32 32" fill="none" xmlns="http://www.w3.org/2000/svg">
<path d="M31.1552 24.549C31.0173 24.4112 30.8657 24.2873 30.7045 24.1807C30.4882 24.0377 30.1968 24.0972 30.0538 24.3135C29.9108 24.5298 29.9703 24.8212 30.1866 24.9642C30.7278 25.322 31.0608 25.9377 31.0608 26.5886C31.0608 27.1083 30.8585 27.5968 30.491 27.9642C30.1047 28.3507 29.5708 28.5586 29.0232 28.5319C28.8917 28.5262 28.7625 28.5755 28.669 28.6689C28.5755 28.7624 28.5258 28.8909 28.532 29.0231C28.5577 29.5694 28.3508 30.1045 27.9643 30.4909C27.1973 31.2578 25.9715 31.2491 25.2132 30.4909C24.8457 30.1235 24.6434 29.635 24.6434 29.1154C24.6434 28.5957 24.8457 28.1072 25.2132 27.7397C25.4713 27.4817 25.872 27.1963 25.5035 26.8278C25.5027 26.827 23.6477 24.9721 23.6477 24.9721L24.9722 23.6476C24.9722 23.6476 26.8249 25.5003 26.8279 25.5034C27.0263 25.7017 27.3754 25.6736 27.5398 25.4475C27.6005 25.3639 27.6679 25.2851 27.7398 25.2131C27.9631 24.9898 28.2277 24.8287 28.5262 24.7342C28.7735 24.6559 28.9105 24.392 28.8322 24.1447C28.754 23.8974 28.49 23.7606 28.2428 23.8387C27.8337 23.9683 27.454 24.1916 27.1398 24.4869L25.4803 22.8274C25.4803 22.8274 25.0445 21.7313 24.9717 21.2153C24.8152 20.1042 24.7998 18.9988 24.8114 17.8835C24.82 17.0619 24.8282 16.2385 24.7491 15.4197C24.3477 11.2677 22.2427 7.62437 20.5475 5.29918C18.9801 3.14937 16.9957 1.25593 16.9618 1.22206C15.7197 -0.0201943 13.7225 -0.327632 11.3382 0.356056C9.05003 1.01224 6.65059 2.51293 4.58178 4.58174C2.51296 6.65056 1.01228 9.04999 0.356089 11.3381C-0.327661 13.7224 -0.0201613 15.7196 1.22196 16.9618C1.25271 16.9926 3.13309 18.9682 5.29909 20.5474C7.20484 21.9368 9.2939 23.1059 11.5265 23.8787C12.1793 24.1047 12.8445 24.2959 13.519 24.4454C14.6057 24.6862 15.7118 24.8119 16.8285 24.8152C18.2935 24.8195 19.7557 24.7661 21.2153 24.9717C21.7313 25.0444 22.777 25.4687 22.8023 25.4745L24.4869 27.1397C23.9814 27.6766 23.7041 28.3746 23.7041 29.1154C23.7041 29.8859 24.0042 30.6102 24.549 31.1551C25.0938 31.6999 25.8182 32 26.5887 32C27.3592 32 28.0835 31.6999 28.6284 31.1551C29.0888 30.6947 29.3773 30.0922 29.4532 29.4532C30.0922 29.3773 30.6947 29.0887 31.1551 28.6284C31.6999 28.0836 32 27.3592 32 26.5887C32 25.8182 31.7 25.0938 31.1552 24.549ZM1.2589 11.5971C1.8719 9.45949 3.28784 7.20393 5.2459 5.24593C7.2039 3.28787 9.45946 1.87187 11.597 1.25893C12.3434 1.04493 13.0399 0.938868 13.6717 0.938868C14.7682 0.938868 15.6697 1.25818 16.2977 1.88612C17.2875 2.87593 17.5103 4.54537 16.9249 6.58674C16.312 8.72431 14.896 10.9799 12.938 12.9379C10.98 14.8959 8.7244 16.3119 6.58684 16.9248C4.54528 17.5103 2.87609 17.2875 1.88621 16.2976C0.896276 15.3078 0.673526 13.6384 1.2589 11.5971ZM21.3462 24.0416C21.0379 23.9982 20.7299 23.9643 20.4218 23.9384C19.5418 23.8641 18.6613 23.8539 17.7708 23.8666C15.9913 23.892 14.3937 23.7587 12.6885 23.2637C10.1781 22.535 7.97359 21.3322 5.8709 19.8019C5.07503 19.2227 4.37871 18.6511 3.80046 18.1429C4.02965 18.1699 4.26628 18.1838 4.5104 18.1838C5.2314 18.1838 6.01515 18.0659 6.84571 17.8277C9.13378 17.1715 11.5333 15.6708 13.6021 13.6021C15.6708 11.5332 17.1715 9.13374 17.8277 6.84568C18.1465 5.73412 18.2496 4.70687 18.1432 3.80087C18.6513 4.37906 19.2227 5.07506 19.8019 5.87093C21.4225 8.09749 23.434 11.5772 23.8142 15.5102C24.0017 17.4508 23.768 19.4049 24.0416 21.3465C24.1191 21.8961 24.2932 22.3832 24.4698 22.8217L22.8216 24.47C22.3831 24.2932 21.8961 24.1191 21.3462 24.0416Z" fill="black"/>
<path d="M7.12315 15.8424C8.87478 15.2538 10.7433 14.0258 12.3847 12.3844C14.0261 10.743 15.2541 8.8745 15.8427 7.12282C16.4684 5.26075 16.3044 3.72669 15.381 2.80319C13.5347 0.957129 9.32634 2.27313 5.79984 5.79938C5.25696 6.34225 4.75346 6.91663 4.30303 7.50663C4.14571 7.71282 4.18528 8.0075 4.3914 8.16488C4.59771 8.32219 4.89228 8.28263 5.04965 8.0765C5.47471 7.51957 5.95059 6.97694 6.46403 6.46357C9.5129 3.41463 13.2924 2.04257 14.7169 3.46732C15.3654 4.11582 15.4513 5.33913 14.9525 6.82363C14.4093 8.44044 13.2615 10.1794 11.7207 11.7201C10.1799 13.2609 8.44096 14.4088 6.82415 14.952C5.33978 15.4508 4.11634 15.3651 3.46778 14.7164C2.58596 13.8346 2.75378 11.9636 3.90571 9.8335C4.02909 9.60538 3.94415 9.32044 3.71603 9.19713C3.48796 9.07363 3.20296 9.15863 3.07965 9.38682C1.70165 11.9348 1.59853 14.1754 2.80371 15.3806C3.35853 15.9354 4.13359 16.2161 5.06803 16.216C5.68859 16.2161 6.3799 16.0922 7.12315 15.8424Z" fill="black"/>
<path d="M10.4194 9.16051C11.133 9.16051 12.0113 8.70689 12.7637 7.88614C13.8737 6.67533 14.164 5.26114 13.4391 4.59658C13.0565 4.24576 12.4848 4.18383 11.8296 4.42208C11.2773 4.62295 10.7059 5.02508 10.2205 5.55451C9.11052 6.76526 8.82014 8.17945 9.54502 8.84414C9.77858 9.05814 10.0804 9.16051 10.4194 9.16051ZM10.9128 6.18914C11.2925 5.77508 11.7436 5.4527 12.1505 5.30464C12.56 5.15564 12.9451 5.1877 12.8913 5.70851C12.8316 6.28557 12.4518 6.83645 12.0715 7.25139C11.2825 8.11189 10.4105 8.36314 10.1798 8.15176C9.94914 7.94032 10.1239 7.0497 10.9128 6.18914Z" fill="black"/>
</svg>
