<svg width="31" height="35" viewBox="0 0 31 35" fill="none" xmlns="http://www.w3.org/2000/svg">
<path d="M28.7824 13.897C27.8157 12.1754 26.4696 10.6403 24.8572 9.41382C26.2118 8.13475 26.7251 6.61242 26.7498 6.53846C26.8587 6.20761 26.7072 5.84658 26.3991 5.69972C26.0917 5.55339 25.7252 5.67034 25.5506 5.96968C25.486 6.07917 25.0232 6.80442 23.9919 6.80442C23.6339 6.80442 23.2069 6.71683 22.705 6.48585C20.1582 5.31413 17.4623 5.76327 16.9728 5.85887H16.5883C16.0145 4.43988 14.2229 0.420291 12.2094 0.0381732C11.4844 -0.100148 10.8626 0.141246 10.5049 0.700405C10.0691 1.38213 10.0299 2.69244 10.7991 3.87858C11.0839 4.31731 11.4398 4.94029 11.8463 5.70987C10.708 5.65058 9.02528 5.7387 7.40222 6.48585C5.45387 7.38147 4.64325 6.11815 4.55739 5.97102C4.38619 5.67435 4.02614 5.55552 3.71875 5.69491C3.41188 5.83377 3.25391 6.18705 3.35092 6.51789C3.37479 6.59934 3.88684 8.30565 5.24947 9.76176C3.74677 10.9957 2.49698 12.5106 1.60776 14.1827C0.541107 16.1905 0 18.3547 0 20.6154C0 24.4697 1.59634 28.0901 4.49565 30.8087C7.37784 33.5118 11.2053 35 15.2734 35C19.3416 35 23.169 33.5118 26.0512 30.8087C28.9505 28.0901 30.5469 24.4697 30.5469 20.6154C30.5469 18.2746 29.9365 15.9518 28.7824 13.897ZM7.94411 7.73421C9.77236 6.89254 11.7565 7.0402 12.5555 7.14968L12.627 7.31845V7.31978L13.363 9.05627C13.509 9.4002 13.8963 9.55882 14.2314 9.41169C14.5668 9.26535 14.7248 8.86828 14.5855 8.52168C14.4029 8.06719 14.0833 7.31791 13.8478 6.7697C13.7601 6.56596 13.6903 6.40387 13.6525 6.31789C13.6486 6.30828 13.6439 6.29866 13.6392 6.28985C13.6307 6.26582 13.6205 6.24259 13.6094 6.21989C12.9259 4.8527 12.3516 3.80942 11.9033 3.11915C11.4802 2.4676 11.4504 1.70951 11.6144 1.45236C11.6377 1.41631 11.6927 1.33006 11.9684 1.38213C12.8756 1.5549 14.4693 3.97979 15.5204 6.78813C15.6195 7.05195 15.8651 7.22605 16.1401 7.22605H17.0384C17.0851 7.22605 17.132 7.22071 17.1774 7.2111C17.1907 7.20843 17.868 7.06557 18.8381 7.06557C19.7823 7.06557 21.0049 7.20095 22.1631 7.73421C22.9532 8.09764 23.6326 8.20178 24.1983 8.1668C23.9607 8.41914 23.6865 8.66587 23.3716 8.88724C21.9945 9.85602 20.2684 10.0475 18.2412 9.45681C17.9935 9.38418 17.7271 9.46643 17.5585 9.6667C17.3899 9.86697 17.3494 10.15 17.4534 10.3925C17.5551 10.6264 17.7377 10.8123 18.0153 11.0948C18.5248 11.612 19.3642 12.4665 19.7963 13.8852C19.1289 13.5939 18.4962 13.5544 18.042 13.5255C17.8254 13.5119 17.6015 13.4975 17.5053 13.462L17.4402 13.4387C15.9435 12.8945 15.7204 12.4011 15.7204 12.1549C15.7204 11.7776 15.4169 11.4713 15.0504 11.4713C14.6838 11.4713 14.3863 11.7776 14.3863 12.1549C14.3863 12.7421 12.7054 13.8094 12.0188 14.0615C11.9399 14.0911 11.8569 14.1183 11.7705 14.1477C11.3861 14.2761 10.9238 14.43 10.3832 14.7862C10.846 13.3573 11.6616 12.3717 12.1656 11.7639C12.4066 11.4721 12.5661 11.2801 12.653 11.0803C12.7573 10.8376 12.7168 10.5546 12.5482 10.3543C12.42 10.2026 12.2361 10.1185 12.046 10.1185C11.9856 10.1185 11.9246 10.1268 11.8649 10.1444C9.82216 10.7399 8.08574 10.4515 6.70314 9.28672H6.70236C6.28525 8.93451 5.94128 8.53877 5.66036 8.14837C6.28343 8.23516 7.04244 8.14917 7.94411 7.73421C9.77236 6.89254 7.04244 8.14917 7.94411 7.73421ZM15.2734 33.6328C7.58432 33.6328 1.32813 27.7934 1.32813 20.6154C1.32813 16.751 3.12576 13.1517 6.27799 10.6681C7.2113 11.3322 8.30467 11.7135 9.43514 11.7925C9.76976 11.8157 10.1059 11.8139 10.4403 11.7898C9.69142 12.8366 8.8201 14.426 8.7166 16.5998C8.70259 16.8925 8.8712 17.1611 9.13553 17.269C9.21465 17.3013 9.29765 17.3168 9.37988 17.3168C9.48753 17.3168 9.59311 17.2904 9.68805 17.2391C9.70932 17.2274 9.72929 17.2143 9.74901 17.2015C9.79881 17.1665 9.84473 17.1248 9.88519 17.0762C10.8701 15.8861 11.5666 15.653 12.1809 15.4479C12.2792 15.415 12.3721 15.3835 12.4665 15.3493C12.489 15.3405 14.1061 14.6706 15.0496 13.6246C15.6812 14.2489 16.5956 14.5816 16.9979 14.728L17.0578 14.7499C17.332 14.8503 17.6368 14.8695 17.9603 14.89C18.6747 14.9352 19.485 14.9864 20.2215 15.8765C20.4054 16.0994 20.7068 16.1766 20.9711 16.0692C21.2355 15.9611 21.4041 15.6925 21.3901 15.4001C21.2959 13.4169 20.5566 12.0523 19.8562 11.141C20.906 11.2168 21.974 11.082 22.9506 10.667C23.2204 10.5524 23.4837 10.4203 23.735 10.2675C25.3493 11.4208 26.6914 12.9047 27.633 14.5811C28.6701 16.4281 29.2188 18.5144 29.2188 20.6151C29.2188 27.7934 22.9626 33.6328 15.2734 33.6328Z" fill="black"/>
<path d="M15.2734 32.2598C8.46265 32.2598 2.92188 27.0362 2.92188 20.6155C2.92188 20.2379 3.21915 19.9319 3.58594 19.9319C3.95273 19.9319 4.25 20.2379 4.25 20.6155C4.25 26.2824 9.19519 30.8926 15.2734 30.8926C15.6402 30.8926 15.9375 31.1986 15.9375 31.5762C15.9375 31.9538 15.6402 32.2598 15.2734 32.2598Z" fill="black"/>
<path d="M18.0178 31.9595C17.651 31.9595 17.3535 31.6535 17.3535 31.2759C17.3535 30.8983 17.6505 30.5923 18.0171 30.5923H18.0178C18.3846 30.5923 18.6819 30.8983 18.6819 31.2759C18.6819 31.6535 18.3846 31.9595 18.0178 31.9595Z" fill="black"/>
</svg>
