<svg width="34" height="35" viewBox="0 0 34 35" fill="none" xmlns="http://www.w3.org/2000/svg">
<path d="M31.8342 19.6592C31.5543 19.3161 31.2523 18.9955 30.9318 18.6984C31.458 17.8922 31.7664 16.9231 31.7664 15.8809C31.7664 15.0667 31.573 14.2559 31.2073 13.5362C31.0799 13.2853 30.7789 13.1883 30.5352 13.3195C30.2915 13.4507 30.1972 13.7605 30.3247 14.0114C30.6204 14.5933 30.7703 15.2223 30.7703 15.8809C30.7703 16.6793 30.5439 17.4242 30.1541 18.0516C29.912 17.8713 29.6621 17.703 29.4049 17.5478C29.7026 17.0652 29.8758 16.4937 29.8758 15.8808C29.8758 14.1602 28.516 12.7603 26.8445 12.7603C26.3519 12.7603 25.8867 12.8826 25.4752 13.0983V12.0936C25.9018 11.9296 26.363 11.8395 26.8445 11.8395C27.5806 11.8395 28.2988 12.0513 28.9214 12.4519C29.1547 12.602 29.4619 12.529 29.6078 12.2888C29.7535 12.0487 29.6827 11.7324 29.4494 11.5823C28.6682 11.0797 27.7674 10.814 26.8444 10.814C26.3692 10.814 25.9101 10.8852 25.4752 11.0154V7.04382C26.3695 7.03685 27.0951 6.28605 27.0951 5.36375C27.0951 4.43755 26.3633 3.68395 25.4637 3.68341L26.184 1.13285C26.2603 0.862764 26.2099 0.578867 26.0459 0.353965C25.8819 0.128994 25.6311 0 25.3579 0H19.234C18.9592 0 18.7076 0.130156 18.5437 0.357041C18.3797 0.583926 18.331 0.869395 18.4099 1.14023L19.1515 3.68341H17.1964C16.8821 3.68341 16.5962 3.86148 16.4505 4.14825C16.3048 4.43495 16.3256 4.77818 16.5048 5.0441L17.1922 6.06341C17.6062 6.67755 18.287 7.04416 19.0132 7.04416H19.2368V15.1551C19.2368 15.7657 18.8164 16.2853 18.2371 16.3905C16.644 16.6798 15.1523 17.405 13.9137 18.4731C13.6122 16.2777 12.964 14.3309 12.0359 12.9098C11.9051 12.7095 11.6868 12.59 11.452 12.59C11.2171 12.59 10.9988 12.7095 10.8681 12.9097C9.553 14.9235 8.79869 17.9922 8.79869 21.329C8.79869 21.8329 8.81675 22.3321 8.85161 22.8233C8.60584 22.5405 8.35031 22.2618 8.08529 21.989C7.91263 21.8113 7.73526 21.6355 7.54301 21.4517C7.34154 21.2591 7.02637 21.271 6.83911 21.4784C6.65191 21.6859 6.66353 22.0104 6.86507 22.2031C7.04829 22.3783 7.21702 22.5454 7.38098 22.7142C8.28517 23.645 9.07348 24.6401 9.71397 25.6417C9.61489 25.7145 9.51886 25.793 9.42556 25.8761C9.11272 25.7089 8.7777 25.5745 8.42588 25.4773L4.86697 21.8137C4.67247 21.6135 4.35711 21.6135 4.16267 21.8137C3.96816 22.0139 3.96816 22.3385 4.16267 22.5387L6.84834 25.3034C6.36908 25.3265 5.90856 25.417 5.47705 25.5647C5.32903 25.4218 5.1824 25.2758 5.03744 25.1266C3.06238 23.0934 1.61572 20.7099 1.09291 18.6537C2.34486 18.9919 3.75241 19.7137 5.10829 20.7179C5.33155 20.8834 5.64286 20.8311 5.80343 20.6012C5.96407 20.3714 5.91334 20.051 5.69001 19.8856C4.03318 18.6584 2.35569 17.848 0.838903 17.542C0.608673 17.4956 0.372399 17.57 0.206384 17.741C0.0403016 17.9119 -0.031882 18.1553 0.0131414 18.3921C0.231552 19.5392 0.73252 20.8167 1.46206 22.0862C2.21809 23.4019 3.18404 24.6688 4.33313 25.8517C4.38978 25.91 4.44722 25.9671 4.5044 26.0244C3.21499 26.8192 2.3612 28.188 2.3612 29.7413C2.3612 32.1917 4.48434 34.1852 7.09404 34.1852C8.22952 34.1852 9.2715 33.8064 10.0878 33.1782C10.9611 33.845 11.9837 34.1826 12.979 34.1826C13.8365 34.1826 14.6733 33.9308 15.377 33.4242C16.4118 33.9123 17.5615 34.1853 18.7722 34.1853H25.8198C30.3304 34.1853 34 30.4078 34 25.7645C34 23.5398 33.2308 21.3715 31.8342 19.6592ZM26.8445 13.7858C27.9667 13.7858 28.8797 14.7256 28.8797 15.8809C28.8797 16.3247 28.7446 16.7363 28.515 17.0753C27.8599 16.7723 27.1704 16.5475 26.4603 16.4097C25.8895 16.2989 25.4753 15.7806 25.4753 15.1771V14.333C25.837 13.9934 26.3175 13.7858 26.8445 13.7858ZM19.4166 1.02553H25.1771L24.4264 3.68354H20.1916L19.4166 1.02553ZM18.0106 5.4788L17.4914 4.70894H25.4628C25.8136 4.70894 26.0991 5.00274 26.0991 5.36396C26.0991 5.72517 25.8137 6.01897 25.4628 6.01897H19.0133C18.6134 6.01891 18.2385 5.81704 18.0106 5.4788ZM11.4521 13.8806C12.495 15.7152 13.1093 18.4536 13.1093 21.3291C13.1093 22.5747 12.9962 23.7855 12.7848 24.9073C12.5061 24.8671 12.2266 24.8536 11.9501 24.8659V18.8624C11.9501 18.5793 11.7271 18.3497 11.4521 18.3497C11.177 18.3497 10.954 18.5793 10.954 18.8624V25.0309C10.8315 25.0668 10.7108 25.1084 10.592 25.1558C10.4108 24.8688 10.2183 24.5827 10.0155 24.2985C9.87108 23.3523 9.79485 22.3524 9.79485 21.3291C9.79485 18.4536 10.4091 15.7153 11.4521 13.8806ZM3.35729 29.7414C3.35729 27.8564 5.03359 26.3229 7.09404 26.3229C7.68399 26.3229 8.2422 26.4489 8.73886 26.6726C7.6235 28.3661 7.84297 30.7834 9.33479 32.475C8.71004 32.9047 7.93408 33.1598 7.09404 33.1598C5.03359 33.1599 3.35729 31.6263 3.35729 29.7414ZM10.2135 31.939C8.75659 30.4392 8.62464 28.1346 9.91943 26.8017C10.4984 26.2058 11.2821 25.8835 12.1426 25.8835C12.204 25.8835 12.2659 25.8852 12.328 25.8884C13.2804 25.9391 14.1973 26.3709 14.9099 27.1045C16.3669 28.6043 16.4988 30.9089 15.204 32.2418C13.9092 33.5747 11.6705 33.4388 10.2135 31.939ZM25.8198 33.1599H18.7722C17.8574 33.1599 16.9823 32.9822 16.1769 32.6597C16.3225 32.476 16.4512 32.282 16.5618 32.0792C17.2523 32.3362 17.9967 32.4764 18.7722 32.4764H25.8198C29.1074 32.4764 31.8892 29.9454 32.2906 26.589C32.3242 26.308 32.1301 26.0521 31.8571 26.0175C31.5838 25.9829 31.3356 26.1827 31.302 26.4637C30.962 29.3069 28.6052 31.451 25.8198 31.451H18.7722C18.1292 31.451 17.5121 31.336 16.9379 31.1267C17.3548 29.5466 16.9028 27.7058 15.6143 26.3795C15.0645 25.8135 14.4235 25.4055 13.7502 25.1554C13.9131 24.3086 14.0212 23.4161 14.0718 22.4995C14.2824 22.1076 14.5305 21.7349 14.816 21.3889C15.8078 20.1865 17.1702 19.3718 18.6562 19.0913L26.0125 19.1055C27.4807 19.4015 28.8242 20.2212 29.7999 21.4175C30.4648 22.2327 30.9399 23.212 31.1738 24.2497C31.236 24.5255 31.5033 24.6971 31.7715 24.6332C32.0395 24.5692 32.2062 24.2937 32.1441 24.0179C31.8749 22.8236 31.328 21.6965 30.5627 20.7581C29.4297 19.369 27.8635 18.4211 26.1526 18.0891C26.1225 18.0832 26.0919 18.0802 26.0613 18.0802L18.6131 18.0658C18.5848 18.0671 18.5546 18.0684 18.5257 18.0736C16.8141 18.3845 15.2435 19.3097 14.0956 20.6801C14.0862 20.3611 14.0696 20.0453 14.0465 19.733C15.24 18.5189 16.7651 17.6992 18.4103 17.4003C19.4665 17.2085 20.233 16.2643 20.233 15.1552V7.0443H24.4791V15.1771C24.4791 16.2731 25.2347 17.2152 26.2757 17.4173C28.1368 17.7785 29.84 18.8089 31.0713 20.3186C32.3176 21.8466 33.0039 23.7806 33.0039 25.7645C33.0039 29.8424 29.7811 33.1599 25.8198 33.1599Z" fill="black"/>
<path d="M4.59863 28.7615C4.32358 28.7615 4.10059 28.991 4.10059 29.2742V30.2084C4.10059 30.4915 4.32358 30.7211 4.59863 30.7211C4.87369 30.7211 5.09668 30.4915 5.09668 30.2084V29.2742C5.09668 28.991 4.87375 28.7615 4.59863 28.7615Z" fill="black"/>
<path d="M10.7661 27.0125L10.1244 27.673C9.92989 27.8733 9.92989 28.1978 10.1244 28.3981C10.2216 28.4982 10.3491 28.5482 10.4765 28.5482C10.604 28.5482 10.7315 28.4982 10.8287 28.3981L11.4704 27.7375C11.6649 27.5373 11.6649 27.2127 11.4704 27.0125C11.2759 26.8122 10.9606 26.8122 10.7661 27.0125Z" fill="black"/>
</svg>
